# File created by Blade
# Date/Time:  Tue Jan 27 18:55:50 2015
# Frame Rate: 120.000 fps
#------------------------------------------------------
:FULLY-SPECIFIED
:DEGREES
2688
root -0.615825 32.707949 -5.924046 27.479370 -23.688676 -27.788321
Spine 5.615959 14.987508 3.865279
Head 2.744495 12.699332 12.714455
LeftShoulder -18.416582 21.097231 15.737886
LeftArm -15.290574 -55.194959 -66.059396
LeftForeArm -12.719600 0.000000 112.838667
LeftHand -15.494984 -0.000000 43.458921
LeftHandThumb1 -26.253704 0.000000 33.147579
RightShoulder 3.662690 16.955648 -3.761098
RightArm 29.664308 -53.095729 76.468691
RightForeArm -25.702927 -0.000000 26.349529
RightHand -14.649148 -0.000000 9.269462
RightHandThumb1 -24.326973 -0.000000 -32.862282
LeftUpLeg -25.462765 18.686108 9.672455
LeftLeg 22.327395 -0.000000 -0.000000
LeftFoot -39.936519 35.636098 -32.994616
LeftToeBase 8.824031 -0.000000 -0.000000
RightUpLeg -38.068385 -54.095863 6.339699
RightLeg 98.064001 -0.000000 -0.000000
RightFoot -16.904822 3.567820 40.530868
RightToeBase 11.334156 -0.000000 -0.000000
2689
root -0.624733 32.705934 -5.921928 27.496048 -23.701567 -27.798634
Spine 5.567960 15.014511 3.826904
Head 2.766402 12.726433 12.737647
LeftShoulder -18.420426 21.044883 15.723106
LeftArm -15.220776 -55.341443 -66.148714
LeftForeArm -12.684622 -0.000000 112.937215
LeftHand -15.492069 -0.000000 43.366483
LeftHandThumb1 -26.253704 0.000000 33.147579
RightShoulder 3.683042 17.016486 -3.744889
RightArm 29.743593 -53.084790 76.445234
RightForeArm -25.665224 0.000000 26.396628
RightHand -14.471314 -0.000000 9.534123
RightHandThumb1 -24.326973 -0.000000 -32.862282
LeftUpLeg -25.474150 18.737422 9.677871
LeftLeg 22.354975 -0.000000 -0.000000
LeftFoot -39.975745 35.658487 -33.004066
LeftToeBase 8.404642 -0.000000 -0.000000
RightUpLeg -38.064995 -54.093870 6.386133
RightLeg 97.994196 -0.000000 -0.000000
RightFoot -17.059599 3.454388 40.492685
RightToeBase 11.068548 -0.000000 -0.000000
2690
root -0.633089 32.703206 -5.921674 27.532195 -23.731045 -27.820330
Spine 5.510664 15.054429 3.792674
Head 2.772513 12.767978 12.751746
LeftShoulder -18.428591 20.988647 15.696599
LeftArm -15.210337 -55.438666 -66.152416
LeftForeArm -12.712645 -0.000000 113.051913
LeftHand -15.492706 0.000000 43.337456
LeftHandThumb1 -26.253704 0.000000 33.147579
RightShoulder 3.694277 17.067702 -3.747449
RightArm 29.907662 -53.120516 76.355211
RightForeArm -25.628911 -0.000000 26.415423
RightHand -14.568737 -0.000000 9.305278
RightHandThumb1 -24.326973 -0.000000 -32.862282
LeftUpLeg -25.496215 18.784072 9.689419
LeftLeg 22.377442 -0.000000 -0.000000
LeftFoot -39.954665 35.812588 -32.796360
LeftToeBase 8.603094 -0.000000 -0.000000
RightUpLeg -38.113921 -54.079523 6.469345
RightLeg 97.962922 -0.000000 -0.000000
RightFoot -17.166965 3.444839 40.581611
RightToeBase 10.920768 -0.000000 -0.000000
2691
root -0.639658 32.700075 -5.922714 27.585449 -23.772823 -27.850897
Spine 5.441900 15.090985 3.768771
Head 2.794677 12.828972 12.742252
LeftShoulder -18.472006 20.967961 15.638509
LeftArm -15.153399 -55.483405 -66.187884
LeftForeArm -12.773534 -0.000000 113.180513
LeftHand -15.415347 -0.000000 43.282320
LeftHandThumb1 -26.253704 0.000000 33.147579
RightShoulder 3.735696 17.143187 -3.771440
RightArm 30.004805 -53.155030 76.295543
RightForeArm -25.751399 0.000000 26.505078
RightHand -14.628930 0.000000 9.125844
RightHandThumb1 -24.326973 -0.000000 -32.862282
LeftUpLeg -25.522746 18.776120 9.719477
LeftLeg 22.408068 -0.000000 -0.000000
LeftFoot -39.997834 35.780489 -32.792562
LeftToeBase 9.114663 -0.000000 -0.000000
RightUpLeg -38.246492 -54.080445 6.587770
RightLeg 97.994850 -0.000000 -0.000000
RightFoot -17.170779 3.465095 40.706698
RightToeBase 10.984425 -0.000000 -0.000000
